<?xml version="1.0" encoding="utf-8"?>
<!-- Generator: Adobe Illustrator 28.1.0, SVG Export Plug-In . SVG Version: 6.00 Build 0)  -->
<svg version="1.1" id="Calque_1" xmlns="http://www.w3.org/2000/svg" xmlns:xlink="http://www.w3.org/1999/xlink" x="0px" y="0px"
	 viewBox="0 0 1881.2 403.2" style="enable-background:new 0 0 1881.2 403.2;" xml:space="preserve">
<style type="text/css">
	.st0{enable-background:new    ;}
	.st1{fill:#FDD320;}
	.st2{fill:#FFFFFF;}
</style>
<g class="st0">
	<path d="M439.8,28.5c-1.2,29.4-1.2,64.8-1.2,112.5s0.3,80.1,1.2,112.5h-33.3c1.2-26.1,1.5-72.3,1.5-97.8
		c-19.2-0.3-43.2-0.3-65.4-0.3c-21.6,0-45.6,0-65.1,0.3c0,25.5,0.3,71.7,1.2,97.8H246c1.2-32.4,0.9-64.8,0.9-112.5
		s0.6-83.1-0.9-112.5h32.7c-0.9,23.7-1.2,72-1.2,98.7c19.5,0.3,43.5,0.3,65.1,0.3c22.2,0,46.2,0,65.4-0.3c0-26.7-0.3-75-1.5-98.7
		H439.8z"/>
	<path d="M653.7,129.9c9.6-41.4,38.4-60.6,80.1-60.6c52.2,0,73.8,29.7,73.8,74.4c0,9.6-0.3,18.9-0.6,26.1c-13.5-0.3-38.1,0-73.2,0
		c-23.1,0-47.1-0.3-66-0.6c1.5,44.7,24,66,62.4,66c39.3,0,50.1-17.1,50.4-42.3c3.6,0.3,8.1,0.6,13.5,0.6s9.6-0.3,13.2-0.6
		c0.6,34.5-13.5,64.5-74.1,64.5c-42.3,0-71.1-20.4-80.1-62.4c-10.2,39.9-39.6,62.4-78.3,62.4c-52.2,0-89.7-35.1-89.7-96.3
		s39.3-91.8,89.7-91.8c38.1,0,68.4,20.1,78.6,60.6H653.7z M639.6,162c0-46.2-26.7-67.2-63.3-67.2c-36.3,0-63,20.7-63,67.2
		c0,46.2,26.1,70.2,63,70.2C613.8,232.2,639.6,207.9,639.6,162z M668.4,152.4c31.5,0.6,87.9,0.6,111.9,0c0-3.3,0.3-7.5,0.3-11.4
		c0-30.6-15.3-49.8-51.6-49.8C693.9,91.2,671.7,109.8,668.4,152.4z"/>
	<path d="M868.5,74.1c0-34.2,17.7-55.2,62.4-55.2c17.4,0,30.9,2.1,45,6.9c-1.5,6.3-3.6,17.4-4.5,25.5c-9.6-4.5-21.9-7.2-36-7.2
		c-26.7,0-37.5,9.3-37.5,33.9v6.3c24.3,0,49.5-0.3,72.9-0.6c-0.3,7.2-0.3,16.8-0.3,25.8c-23.7-0.6-48.3-0.9-72.6-0.9
		c0,69.6,0,107.1,1.2,144.9c-5.7-0.3-10.8-0.3-15.6-0.3s-9.9,0-15.6,0.3c0.9-33,1.5-63.9,1.5-97.8c0-10.5-0.3-27.3-0.6-46.8
		c-10.2,0-20.1,0.3-29.4,0.6V84.3h29.1L868.5,74.1L868.5,74.1z"/>
	<path d="M1005,253.5c0.9-36.9,0.9-75,0.9-115.5c0-47.1,0-78-0.9-116.7h30.3c-0.9,37.8-0.6,68.7-0.6,117.9
		c0,42.6-0.3,76.5,0.6,114.3L1005,253.5L1005,253.5z"/>
	<path d="M1245.3,192.9c0.9,34.5-13.2,64.5-77.4,64.5c-54.6,0-89.4-30.3-89.4-93.9c0-64.5,35.7-94.2,90-94.2
		c55.5,0,77.1,29.7,77.1,74.4c0,9.6,0,18.9-0.6,26.1c-13.2-0.3-38.1,0-72.9,0c-23.1,0-47.1-0.3-66.3-0.6c1.5,44.7,24,66,62.4,66
		c39.3,0,50.4-17.1,50.4-42.3c3.9,0.3,8.1,0.6,13.8,0.6C1237.8,193.5,1241.7,193.2,1245.3,192.9z M1106.4,152.4
		c31.5,0.6,87.9,0.6,111.9,0c0.3-3.3,0.3-7.5,0.3-11.4c0-30.6-15.3-49.8-51.3-49.8C1131.9,91.2,1109.7,109.8,1106.4,152.4z"/>
	<path d="M1321.5,113.7c9.3-29.7,30-43.2,60-43.2c13.5,0,24.6,2.7,34.5,6.6c-1.8,6.9-4.2,20.1-5.1,28.2c-9.6-4.8-20.4-6.9-32.7-6.9
		c-30.9,0-53.1,17.4-53.1,60.9c0,32.1,0,73.8,0.9,94.2h-31.5c0.6-25.2,0.6-51.9,0.6-90.6c0-38.4,0-63.9-0.6-89.7h26.4
		c-0.3,11.1-0.9,24.3-1.5,40.5H1321.5z"/>
</g>
<g id="Groupe_20-2">
	<path id="Tracé_18-2" class="st1" d="M1878.2,363.1c-2.5-5.2-6.7-8.6-11.5-11.8c-12.2-8-24.2-16.3-36.3-24.4
		c-25.1-17-50.3-33.9-75.4-50.9c-1-0.7-2.1-1.1-3.3-1.3c-7.3-1.2-14.6-2.4-21.9-3.5c-22.7-3.6-45.4-7.2-68.1-10.8
		c-15.1-2.4-30.2-4.7-45.3-7.3c-12.6-2.2-24.6,4.2-29.5,16c-4.7,11.6-0.6,24.5,10,31.7c16.2,10.9,32.3,21.9,48.5,32.8
		c21.8,14.8,43.7,29.6,65.5,44.5c0.9,0.6,2,1,3.1,1.2c7.6,1.3,15.2,2.4,22.8,3.6c20.8,3.3,41.7,6.5,62.5,9.8
		c16.9,2.7,33.7,5.4,50.6,8c10.7,1.7,19.6-1.6,26-10.4C1882.1,381.8,1882.7,372.6,1878.2,363.1"/>
</g>
<g id="Groupe_20-3">
	<path id="Tracé_18-3" d="M1662.7,37c-3.5-1.4-7.1-1.1-10.8-0.5c-9.5,1.6-19,3.1-28.5,4.6c-19.8,3.1-39.5,6.3-59.3,9.4
		c-0.8,0.1-1.5,0.4-2.2,0.8c-4.1,2.7-8.1,5.4-12.1,8.2c-12.6,8.5-25.2,17-37.7,25.5c-8.4,5.6-16.7,11.4-25.1,16.9
		c-7.1,4.4-10,13.2-7,21c2.9,7.7,11,12.2,19.1,10.8c12.7-2,25.4-4,38.2-6c17.2-2.7,34.4-5.4,51.6-8.1c0.7-0.1,1.4-0.4,2-0.8
		c4.2-2.8,8.4-5.7,12.6-8.5c11.5-7.8,23.1-15.6,34.6-23.4c9.3-6.3,18.7-12.6,28-18.9c5.9-4,8.7-9.6,7.8-16.7
		C1673,44.2,1669.1,39.5,1662.7,37"/>
</g>
<g id="Groupe_20">
	<path id="Tracé_18" class="st2" d="M272.4,1.1c-5.5-1.8-10.9-1.2-16.4,0.1c-14.2,3.2-28.6,6.2-42.8,9.2
		c-29.7,6.3-59.4,12.6-89.1,19c-1.2,0.3-2.3,0.8-3.2,1.5c-5.9,4.4-11.8,8.9-17.7,13.3C84.7,58,66.3,71.9,47.9,85.7
		c-12.2,9.2-24.4,18.5-36.7,27.6c-10.3,7.6-14.1,20.6-8.9,32.4c5.1,11.4,17.2,17.5,29.8,14.8c19.1-4,38.2-8.1,57.3-12.1
		c25.8-5.4,51.7-10.9,77.5-16.3c1.1-0.3,2.1-0.7,3-1.4c6.2-4.6,12.3-9.3,18.5-13.9c16.8-12.7,33.7-25.5,50.5-38.2
		c13.6-10.3,27.3-20.5,40.9-30.8c8.6-6.5,12.4-15.2,10.5-25.9C288.6,11.4,282.3,4.5,272.4,1.1"/>
</g>
<g class="st0">
	<path d="M498.2,333.1c7.4,0,13.7,4.2,17,11.3v-28.3h6.6v67.5h-6.1v-10.4c-3.5,7.2-9.9,11.4-17.5,11.4c-13.3,0-21.8-10.5-21.8-25.8
		S484.8,333.1,498.2,333.1z M499.1,378.8c9.6,0,16.2-7.8,16.2-20.2c0-12.5-6.8-19.7-16.2-19.7c-9.7,0-16.1,7.3-16.1,19.9
		S489.4,378.8,499.1,378.8z"/>
	<path d="M532.4,358.4c0-14.5,9.6-25.3,22.7-25.3c14.1,0,23.3,11.4,22.2,27.3H539c0.6,11.8,6.8,19,16.4,19c8.3,0,14-4.6,15.6-12.5
		h6.5c-2.3,11-10.6,17.7-22,17.7C541.6,384.6,532.4,374.1,532.4,358.4z M539,355.9h31.5c-0.6-11.1-6.3-17.7-15.4-17.7
		C546.1,338.2,539.8,345.1,539,355.9z"/>
	<path d="M605.7,384.6c-12.3,0-19.8-6.2-20.8-16.4h6.3c0.5,7,6,11.5,14.5,11.5c8.1,0,13-3.1,13-8.7c0-4.9-2.8-7.1-10.3-8.6l-7.1-1.4
		c-9.4-1.8-14.4-6.4-14.4-13.5c0-8.3,7.3-14.1,18.1-14.1c11.4,0,18.9,6.1,19.6,16h-6.2c-0.7-6.9-5.6-10.9-13.4-10.9
		c-7,0-11.7,3.3-11.7,8.5c0,4.9,3,7.2,10.3,8.6l7.4,1.4c9.9,1.9,14.3,6,14.3,13.1C625.3,378.9,617.9,384.6,605.7,384.6z"/>
	<path d="M639.9,327.6c-3.1,0-5.3-2.1-5.3-5c0-2.8,2.2-4.9,5.3-4.9c3.2,0,5.4,2.1,5.4,4.9C645.3,325.5,643.1,327.6,639.9,327.6z
		 M636.7,383.6v-49.5h6.6v49.5H636.7z"/>
	<path d="M655.3,385.1h6.3c0.6,8.1,5.8,12.4,14.7,12.4c9.8,0,14.9-5.2,14.9-14.9v-10.3c-3,7-9,11-16.4,11
		c-12.5,0-20.9-10.1-20.9-25.1s8.3-25,20.8-25c7.4,0,13.6,4.2,16.8,11.5v-10.5h6.1v48.4c0,12.8-7.8,20.3-21.3,20.3
		C663.7,402.8,655.8,396.2,655.3,385.1z M675.7,377.6c9.3,0,15.5-7.5,15.5-19c0-12.1-6.1-19.8-15.5-19.8s-15.2,7.3-15.2,19.4
		C660.5,370.3,666.3,377.6,675.7,377.6z"/>
	<path d="M718.5,383.6h-6.6v-49.5h6.1v9.3c3.2-6.1,9.2-10.2,16.4-10.2c10.3,0,17,6.6,17,18.3v32.1h-6.6v-29.9
		c0-9.5-4.3-14.9-12.4-14.9c-7.7,0-13.9,6.7-13.9,15.9V383.6z"/>
	<path d="M782.5,385.1h6.3c0.6,8.1,5.8,12.4,14.7,12.4c9.8,0,14.9-5.2,14.9-14.9v-10.3c-3,7-9,11-16.4,11
		c-12.5,0-20.9-10.1-20.9-25.1s8.3-25,20.8-25c7.4,0,13.6,4.2,16.8,11.5v-10.5h6.1v48.4c0,12.8-7.8,20.3-21.3,20.3
		C791,402.8,783.1,396.2,782.5,385.1z M803,377.6c9.3,0,15.5-7.5,15.5-19c0-12.1-6.1-19.8-15.5-19.8s-15.2,7.3-15.2,19.4
		C787.8,370.3,793.5,377.6,803,377.6z"/>
	<path d="M845.8,383.6h-6.6v-49.5h6.1v11.3c3.4-7.3,10.7-12,18.9-12v6.9c-10.4-0.4-18.4,6.1-18.4,16.9V383.6z"/>
	<path d="M902.8,374.6c-2.9,6.2-8.9,10-16.6,10c-10.2,0-16.9-5.7-16.9-14.7c0-9.7,7.7-14.8,22.7-14.8c3,0,5.3,0.2,10.2,0.6v-4.1
		c0-8.3-4.4-13.2-11.9-13.2c-8.1,0-13.2,5-13.3,13.1h-6c0.3-11,7.9-18.3,19.2-18.3c11.6,0,18.3,6.8,18.3,18.2v32.2h-5.6V374.6z
		 M887.1,379.8c9.2,0,15-6,15-15.3V360c-4.2-0.4-7.1-0.5-9.9-0.5c-11.3,0-16.7,3.3-16.7,10.2C875.5,375.7,880.1,379.8,887.1,379.8z"
		/>
	<path d="M945.9,384.6c-7.4,0-13.7-4-17.1-11.1v28.3h-6.6v-67.7h6.1v10.7c3.4-7.3,10-11.7,17.6-11.7c13.2,0,21.7,10.5,21.7,25.7
		C967.6,374.1,959.1,384.6,945.9,384.6z M944.8,338.9c-9.2,0-16.1,7.3-16.1,19.9c0,12.3,6.7,20,16.1,20c9.7,0,16.2-7.3,16.2-20
		C960.9,346.3,954.5,338.9,944.8,338.9z"/>
	<path d="M984.8,383.6h-6.6v-67.5h6.6v27.1c3.1-5.9,8.7-10.1,15.9-10.1c10.3,0,17,6.6,17,18.3v32.1h-6.6v-29.9
		c0-9.5-4.3-14.9-12.4-14.9c-7.7,0-13.9,6.7-13.9,15.9V383.6z"/>
	<path d="M1034.7,327.6c-3.1,0-5.3-2.1-5.3-5c0-2.8,2.2-4.9,5.3-4.9c3.2,0,5.4,2.1,5.4,4.9C1040.1,325.5,1037.9,327.6,1034.7,327.6z
		 M1031.5,383.6v-49.5h6.6v49.5H1031.5z"/>
	<path d="M1070.5,333.1c7.7,0,14.1,4.4,17.5,11.8v-10.9h6.1v67.7h-6.6v-28.3c-3.4,7-9.6,11.1-17,11.1c-13.3,0-21.8-10.4-21.8-25.8
		C1048.7,343.7,1057.2,333.1,1070.5,333.1z M1071.5,378.8c9.6,0,16.2-7.7,16.2-20c0-12.6-6.8-19.9-16.2-19.9
		c-9.7,0-16.1,7.4-16.1,19.9C1055.4,371.5,1061.8,378.8,1071.5,378.8z"/>
	<path d="M1140.1,334.1h6.5v49.5h-6.1v-8.9c-2.5,5.7-8.6,9.9-15.8,9.9c-10.1,0-16.7-5.7-16.7-18.2v-32.2h6.6v30.8
		c0,10.1,5,13.9,11.9,13.9c7.9,0,13.6-6.4,13.6-15.2V334.1z"/>
	<path d="M1157.2,358.4c0-14.5,9.6-25.3,22.7-25.3c14.1,0,23.3,11.4,22.2,27.3h-38.3c0.6,11.8,6.8,19,16.4,19
		c8.3,0,14-4.6,15.6-12.5h6.5c-2.3,11-10.6,17.7-22,17.7C1166.4,384.6,1157.2,374.1,1157.2,358.4z M1163.8,355.9h31.5
		c-0.6-11.1-6.3-17.7-15.4-17.7C1170.9,338.2,1164.6,345.1,1163.8,355.9z"/>
</g>
</svg>
